<mxfile host="app.diagrams.net" modified="2023-06-05T09:03:33.217Z" agent="Mozilla/5.0 (Macintosh; Intel Mac OS X 10_15_7) AppleWebKit/537.36 (KHTML, like Gecko) Chrome/114.0.0.0 Safari/537.36" etag="OlnV3f0qRdfVWGhcDNWh" version="21.3.7" type="github">
  <diagram name="페이지-1" id="rT08_qQYB-A6Wl8RnfM6">
    <mxGraphModel dx="1242" dy="742" grid="1" gridSize="10" guides="1" tooltips="1" connect="1" arrows="1" fold="1" page="1" pageScale="1" pageWidth="827" pageHeight="1169" math="0" shadow="0">
      <root>
        <mxCell id="0" />
        <mxCell id="1" parent="0" />
        <mxCell id="oTCoc67FsYTaQhpnYICx-19" style="rounded=0;orthogonalLoop=1;jettySize=auto;html=1;exitX=0.5;exitY=0.5;exitDx=0;exitDy=0;exitPerimeter=0;entryX=0;entryY=0.5;entryDx=0;entryDy=0;endArrow=classic;endFill=1;" edge="1" parent="1" source="oTCoc67FsYTaQhpnYICx-1" target="oTCoc67FsYTaQhpnYICx-5">
          <mxGeometry relative="1" as="geometry" />
        </mxCell>
        <mxCell id="oTCoc67FsYTaQhpnYICx-20" style="rounded=0;orthogonalLoop=1;jettySize=auto;html=1;exitX=0.5;exitY=0.5;exitDx=0;exitDy=0;exitPerimeter=0;entryX=0;entryY=0.75;entryDx=0;entryDy=0;endArrow=none;endFill=0;" edge="1" parent="1" source="oTCoc67FsYTaQhpnYICx-1" target="oTCoc67FsYTaQhpnYICx-10">
          <mxGeometry relative="1" as="geometry" />
        </mxCell>
        <mxCell id="oTCoc67FsYTaQhpnYICx-22" style="rounded=0;orthogonalLoop=1;jettySize=auto;html=1;exitX=0.5;exitY=0.5;exitDx=0;exitDy=0;exitPerimeter=0;entryX=0;entryY=0.5;entryDx=0;entryDy=0;endArrow=none;endFill=0;" edge="1" parent="1" source="oTCoc67FsYTaQhpnYICx-1" target="oTCoc67FsYTaQhpnYICx-7">
          <mxGeometry relative="1" as="geometry" />
        </mxCell>
        <mxCell id="oTCoc67FsYTaQhpnYICx-23" style="rounded=0;orthogonalLoop=1;jettySize=auto;html=1;exitX=0.5;exitY=0.5;exitDx=0;exitDy=0;exitPerimeter=0;entryX=0;entryY=0.5;entryDx=0;entryDy=0;" edge="1" parent="1" source="oTCoc67FsYTaQhpnYICx-1" target="oTCoc67FsYTaQhpnYICx-8">
          <mxGeometry relative="1" as="geometry" />
        </mxCell>
        <mxCell id="oTCoc67FsYTaQhpnYICx-1" value="이용자&lt;br&gt;" style="shape=umlActor;verticalLabelPosition=bottom;verticalAlign=top;html=1;" vertex="1" parent="1">
          <mxGeometry x="40" y="340" width="30" height="60" as="geometry" />
        </mxCell>
        <mxCell id="oTCoc67FsYTaQhpnYICx-4" value="게시판 서비스&lt;br&gt;" style="shape=umlFrame;whiteSpace=wrap;html=1;pointerEvents=0;width=70;height=30;" vertex="1" parent="1">
          <mxGeometry x="140" y="30" width="570" height="630" as="geometry" />
        </mxCell>
        <mxCell id="oTCoc67FsYTaQhpnYICx-5" value="회원 가입" style="rounded=1;whiteSpace=wrap;html=1;arcSize=40;fontColor=#000000;fillColor=#ffffc0;strokeColor=#ff0000;" vertex="1" parent="1">
          <mxGeometry x="180" y="100" width="120" height="40" as="geometry" />
        </mxCell>
        <mxCell id="oTCoc67FsYTaQhpnYICx-32" style="rounded=0;orthogonalLoop=1;jettySize=auto;html=1;exitX=1;exitY=0.5;exitDx=0;exitDy=0;dashed=1;" edge="1" parent="1" source="oTCoc67FsYTaQhpnYICx-7" target="oTCoc67FsYTaQhpnYICx-10">
          <mxGeometry relative="1" as="geometry" />
        </mxCell>
        <mxCell id="oTCoc67FsYTaQhpnYICx-7" value="게시판 보기" style="rounded=1;whiteSpace=wrap;html=1;arcSize=40;fontColor=#000000;fillColor=#ffffc0;strokeColor=#ff0000;" vertex="1" parent="1">
          <mxGeometry x="180" y="220" width="120" height="40" as="geometry" />
        </mxCell>
        <mxCell id="oTCoc67FsYTaQhpnYICx-33" style="orthogonalLoop=1;jettySize=auto;html=1;exitX=1;exitY=0.5;exitDx=0;exitDy=0;rounded=0;strokeColor=none;" edge="1" parent="1" source="oTCoc67FsYTaQhpnYICx-8">
          <mxGeometry relative="1" as="geometry">
            <mxPoint x="400" y="110" as="targetPoint" />
          </mxGeometry>
        </mxCell>
        <mxCell id="oTCoc67FsYTaQhpnYICx-34" style="rounded=0;orthogonalLoop=1;jettySize=auto;html=1;exitX=1;exitY=0.5;exitDx=0;exitDy=0;dashed=1;" edge="1" parent="1" source="oTCoc67FsYTaQhpnYICx-8" target="oTCoc67FsYTaQhpnYICx-10">
          <mxGeometry relative="1" as="geometry" />
        </mxCell>
        <mxCell id="oTCoc67FsYTaQhpnYICx-8" value="게시글 보기" style="rounded=1;whiteSpace=wrap;html=1;arcSize=38;fontColor=#000000;fillColor=#ffffc0;strokeColor=#ff0000;" vertex="1" parent="1">
          <mxGeometry x="180" y="340" width="120" height="40" as="geometry" />
        </mxCell>
        <mxCell id="oTCoc67FsYTaQhpnYICx-24" style="rounded=0;orthogonalLoop=1;jettySize=auto;html=1;exitX=1;exitY=0.5;exitDx=0;exitDy=0;entryX=0;entryY=0.5;entryDx=0;entryDy=0;dashed=1;" edge="1" parent="1" source="oTCoc67FsYTaQhpnYICx-10" target="oTCoc67FsYTaQhpnYICx-11">
          <mxGeometry relative="1" as="geometry" />
        </mxCell>
        <mxCell id="oTCoc67FsYTaQhpnYICx-31" value="&amp;lt;&amp;lt;include&amp;gt;&amp;gt;" style="edgeLabel;html=1;align=center;verticalAlign=middle;resizable=0;points=[];" vertex="1" connectable="0" parent="oTCoc67FsYTaQhpnYICx-24">
          <mxGeometry x="-0.2" relative="1" as="geometry">
            <mxPoint as="offset" />
          </mxGeometry>
        </mxCell>
        <mxCell id="oTCoc67FsYTaQhpnYICx-10" value="회원 로그인" style="rounded=1;whiteSpace=wrap;html=1;arcSize=40;fontColor=#000000;fillColor=#ffffc0;strokeColor=#ff0000;" vertex="1" parent="1">
          <mxGeometry x="350" y="60" width="110" height="40" as="geometry" />
        </mxCell>
        <mxCell id="oTCoc67FsYTaQhpnYICx-11" value="인증" style="rounded=1;whiteSpace=wrap;html=1;arcSize=40;fontColor=#000000;fillColor=#ffffc0;strokeColor=#ff0000;" vertex="1" parent="1">
          <mxGeometry x="580" y="60" width="120" height="40" as="geometry" />
        </mxCell>
        <mxCell id="oTCoc67FsYTaQhpnYICx-27" style="rounded=0;orthogonalLoop=1;jettySize=auto;html=1;entryX=1;entryY=1;entryDx=0;entryDy=0;dashed=1;" edge="1" parent="1" target="oTCoc67FsYTaQhpnYICx-10">
          <mxGeometry relative="1" as="geometry">
            <mxPoint x="570" y="130" as="sourcePoint" />
          </mxGeometry>
        </mxCell>
        <mxCell id="oTCoc67FsYTaQhpnYICx-30" value="&amp;lt;&amp;lt;extend&amp;gt;&amp;gt;" style="edgeLabel;html=1;align=center;verticalAlign=middle;resizable=0;points=[];" vertex="1" connectable="0" parent="oTCoc67FsYTaQhpnYICx-27">
          <mxGeometry x="-0.0714" y="2" relative="1" as="geometry">
            <mxPoint as="offset" />
          </mxGeometry>
        </mxCell>
        <mxCell id="oTCoc67FsYTaQhpnYICx-12" value="로그인 실패" style="rounded=1;whiteSpace=wrap;html=1;arcSize=40;fontColor=#000000;fillColor=#ffffc0;strokeColor=#ff0000;" vertex="1" parent="1">
          <mxGeometry x="570" y="110" width="120" height="40" as="geometry" />
        </mxCell>
        <mxCell id="oTCoc67FsYTaQhpnYICx-36" style="rounded=0;orthogonalLoop=1;jettySize=auto;html=1;exitX=0;exitY=0.5;exitDx=0;exitDy=0;dashed=1;endArrow=classic;endFill=1;" edge="1" parent="1" source="oTCoc67FsYTaQhpnYICx-13">
          <mxGeometry relative="1" as="geometry">
            <mxPoint x="300" y="240" as="targetPoint" />
          </mxGeometry>
        </mxCell>
        <mxCell id="oTCoc67FsYTaQhpnYICx-13" value="게시판 정렬" style="rounded=1;whiteSpace=wrap;html=1;arcSize=40;fontColor=#000000;fillColor=#ffffc0;strokeColor=#ff0000;" vertex="1" parent="1">
          <mxGeometry x="384" y="210" width="120" height="40" as="geometry" />
        </mxCell>
        <mxCell id="oTCoc67FsYTaQhpnYICx-35" style="rounded=0;orthogonalLoop=1;jettySize=auto;html=1;exitX=0;exitY=0.5;exitDx=0;exitDy=0;entryX=1;entryY=0.5;entryDx=0;entryDy=0;dashed=1;" edge="1" parent="1" source="oTCoc67FsYTaQhpnYICx-14" target="oTCoc67FsYTaQhpnYICx-7">
          <mxGeometry relative="1" as="geometry" />
        </mxCell>
        <mxCell id="oTCoc67FsYTaQhpnYICx-14" value="게시판 검색" style="rounded=1;whiteSpace=wrap;html=1;arcSize=40;fontColor=#000000;fillColor=#ffffc0;strokeColor=#ff0000;" vertex="1" parent="1">
          <mxGeometry x="384" y="280" width="120" height="40" as="geometry" />
        </mxCell>
        <mxCell id="oTCoc67FsYTaQhpnYICx-37" style="rounded=0;orthogonalLoop=1;jettySize=auto;html=1;exitX=0;exitY=0.5;exitDx=0;exitDy=0;entryX=1;entryY=0.5;entryDx=0;entryDy=0;dashed=1;" edge="1" parent="1" source="oTCoc67FsYTaQhpnYICx-15" target="oTCoc67FsYTaQhpnYICx-8">
          <mxGeometry relative="1" as="geometry" />
        </mxCell>
        <mxCell id="oTCoc67FsYTaQhpnYICx-15" value="게시글 쓰기,수정, 삭제" style="rounded=1;whiteSpace=wrap;html=1;arcSize=40;fontColor=#000000;fillColor=#ffffc0;strokeColor=#ff0000;" vertex="1" parent="1">
          <mxGeometry x="384" y="370" width="120" height="40" as="geometry" />
        </mxCell>
        <mxCell id="oTCoc67FsYTaQhpnYICx-38" style="rounded=0;orthogonalLoop=1;jettySize=auto;html=1;exitX=0;exitY=0.75;exitDx=0;exitDy=0;dashed=1;" edge="1" parent="1" source="oTCoc67FsYTaQhpnYICx-16">
          <mxGeometry relative="1" as="geometry">
            <mxPoint x="300" y="360" as="targetPoint" />
          </mxGeometry>
        </mxCell>
        <mxCell id="oTCoc67FsYTaQhpnYICx-16" value="댓글 보기, 쓰기, 수정, 삭제" style="rounded=1;whiteSpace=wrap;html=1;arcSize=40;fontColor=#000000;fillColor=#ffffc0;strokeColor=#ff0000;" vertex="1" parent="1">
          <mxGeometry x="376" y="450" width="136" height="40" as="geometry" />
        </mxCell>
      </root>
    </mxGraphModel>
  </diagram>
</mxfile>
